<?xml version="1.0" encoding="utf-8"?>
<!-- Generator: Adobe Illustrator 26.1.0, SVG Export Plug-In . SVG Version: 6.00 Build 0)  -->
<svg version="1.1" id="Vrstva_1" xmlns="http://www.w3.org/2000/svg" xmlns:xlink="http://www.w3.org/1999/xlink" x="0px" y="0px"
	 viewBox="0 0 547.02 242.43" style="enable-background:new 0 0 547.02 242.43;" xml:space="preserve">
<style type="text/css">
	.st0{fill:#DF0B27;}
	.st1{fill:#334495;}
	.st2{fill:#F19DA8;}
</style>
<g>
	<path class="st0" d="M321.85,194.53c-0.02,3.91,0.05,7.82-0.46,11.72c-0.1,0.75-0.29,1.29-1.07,1.68c-0.9,0.45-2,0.38-3.75-0.2
		c-1.79-0.87-2.75-1.19-5.43-2.48c-1.36-0.45-2.55-1.34-3.88-1.82c-1.98-0.72-3.77-1.82-5.6-2.79c-2.09-1.1-4.3-1.97-6.29-3.27
		c-0.6-0.4-1.42-0.59-2.01-0.98c-1.27-0.83-2.66-1.44-4-2.1c-1.41-0.7-2.81-1.45-4.22-2.16c-1.38-0.69-2.75-1.45-4.13-2.14
		c-1.84-0.92-3.68-1.84-5.51-2.75c-1.44-0.72-2.89-1.48-4.32-2.26c-2.48-1.35-5.03-2.54-7.54-3.82c-3.43-1.76-6.84-3.57-10.27-5.33
		c-4.68-2.4-9.37-4.77-14.05-7.17c-4.51-2.31-9-4.63-13.51-6.94c-5.08-2.6-10.16-5.18-15.25-7.77c-1.56-0.79-3.12-1.62-4.71-2.34
		c-1.49-0.67-2.9-1.48-4.29-2.32c-0.13-0.08-0.26-0.2-0.32-0.34c-4.44-4.11,1.04-7.96,1.04-7.96c0.67-0.77,2.08-1.57,2.99-1.99
		c2.13-0.98,4.15-2.16,6.26-3.18c4.27-2.08,8.48-4.28,12.71-6.42c4.91-2.48,9.83-4.95,14.74-7.44c5.16-2.62,10.3-5.26,15.45-7.89
		c2.95-1.5,5.94-2.94,8.86-4.5c2.95-1.57,5.95-3.03,8.93-4.54c3.08-1.57,6.13-3.17,9.24-4.68c1.36-0.66,2.65-1.45,4.01-2.08
		c1.43-0.67,2.76-1.53,4.21-2.17c1.34-0.59,2.59-1.36,3.91-1.99c1.97-0.94,22.57-11.3,24.6-11.26c1.61,0.04,3,0,3.32,2.57
		c0,9.49,0.06,18.6,0.07,28.09c0,7.74,0,15.47,0,23.21c0,0.32,0,0.64,0,0.96c0,0.47,0.32,0.47,0.66,0.45c0.42,0.18,0.87,0.1,1.3,0.1
		c17.23,0,34.46,0,51.69,0c0.43,0,0.88,0.08,1.3-0.1c0.07,0,0.13-0.03,0.18-0.09c0.7-0.01,0.91-0.63,1.19-1.06
		c1.51-2.29,2.95-4.62,4.44-6.92c2.95-4.54,5.92-9.06,8.88-13.6c2.91-4.46,5.82-8.93,8.73-13.4c1.85-2.83,3.71-5.65,5.54-8.49
		c1.67-2.57,3.33-5.15,4.96-7.75c1.01-1.61,2.41-2.42,4.32-2.5c0.18-0.05,0.79-0.02,0.98,0.03c1.55,0.45,2.53,1.07,3.46,2.58
		c2.28,3.69,4.69,7.3,7.06,10.94c2.69,4.14,5.39,8.26,8.08,12.4c2.78,4.27,5.55,8.55,8.33,12.82c1.37,2.1,2.73,4.2,4.11,6.29
		c0.69,1.05,1.03,1.06,1.95,0.24c2.33-2.08,4.41-4.38,6.21-6.94c1.88-2.68,3.45-5.53,4.55-8.63c0.61-1.72,1.05-3.49,1.51-5.26
		c0.62-2.37,0.64-4.76,0.66-7.13c0.03-3.34-0.36-6.66-1.43-9.89c-0.77-2.31-1.61-4.57-2.75-6.72c-2.6-4.89-6.1-9.02-10.42-12.49
		c-3.38-2.72-7.06-4.9-11.08-6.55c-2.51-1.03-5.07-1.88-7.73-2.47c-2.46-0.54-4.9-1.11-7.44-1.04c-0.28-0.22-0.6-0.15-0.91-0.14
		c-0.89-0.17-1.79-0.19-2.68-0.01c-19.94,0-39.87,0-59.81,0c-0.2,0-0.4,0.01-0.6,0.02c-0.42-0.17-0.87-0.1-1.3-0.1
		c-2.43-0.01-4.86-0.02-7.29-0.01c-0.67,0-1.35-0.1-2.02,0.07c-1.1-0.01-2.21-0.02-3.31-0.03c-0.65-0.26-1.3-0.26-1.95,0
		c-0.31,0-0.62,0-0.93,0c-0.25-0.22-0.5-0.22-0.75,0c-0.63,0-1.26,0-1.89,0c-0.49-0.26-0.98-0.26-1.47,0c-0.47,0-0.94,0-1.41,0
		c-0.57-0.25-1.14-0.25-1.71,0c-0.31,0-0.62,0-0.93,0c-0.17-0.19-0.34-0.19-0.51,0c-0.78,0.01-1.57,0.02-2.35,0.03
		c-1.62-0.18-3.25-0.06-4.88-0.07c-1.03-0.01-2.06-0.11-3.09,0.1c-10.67,0-21.34-0.01-32.01-0.01c-29.42,0-58.83,0-88.25,0
		c-0.28,0-0.56,0.01-0.84,0.01c-0.1,0-0.19,0-0.29,0c-0.3-0.02-0.61-0.05-0.91-0.07c-2.7,0.2-1.8-4.56-1.95-2.69
		c0-7.58,0-15.17,0-22.75c-0.09-2.25,2.16-2.25,3.92-2.17c0.6,0.03,1.2,0,1.8,0c67.96,0,135.93-0.01,203.89,0.01
		c6.55,0,13.11-0.21,19.65,0.42c2.07,0.2,4.12,0.55,6.16,0.87c2.31,0.37,4.61,0.9,6.88,1.53c2.35,0.65,4.68,1.35,6.96,2.18
		c4.05,1.48,7.97,3.28,11.73,5.41c6.11,3.47,11.69,7.65,16.6,12.68c1.62,1.66,3.14,3.4,4.59,5.21c3.07,3.85,5.68,7.97,7.8,12.41
		c0.86,1.79,1.61,3.63,2.33,5.49c0.69,1.79,1.27,3.61,1.74,5.45c0.38,1.46,0.67,2.95,0.96,4.43c0.6,3.1,0.87,6.24,1.07,9.38
		c0.17,2.63-0.16,5.25-0.4,7.88c-0.31,3.31-0.97,6.54-1.79,9.75c-0.21,0.84-0.39,1.71-0.72,2.52c-0.65,1.58-1.15,3.22-1.81,4.8
		c-0.91,2.17-1.91,4.3-3.06,6.34c-1.73,3.09-3.7,6.04-5.9,8.83c-2.11,2.67-4.4,5.17-6.85,7.52c-2.45,2.36-5.15,4.42-7.87,6.44
		c-0.81,0.6-0.88,1.06-0.3,1.9c0.58,0.85,1.18,1.7,1.74,2.56c2.84,4.37,5.66,8.75,8.49,13.13c1.62,2.5,3.24,5.01,4.86,7.51
		c1.36,2.1,2.73,4.2,4.1,6.3c1.96,3,3.92,6,5.87,9c1.21,1.87,2.44,3.74,3.6,5.64c0.87,1.42,1.52,2.94,2.47,4.33
		c0.96,1.39,0.8,3.04,0.05,4.57c-0.16,0.32-0.54,0.84-0.74,0.94c-0.94,0.19-0.87,0.29-2.83,0.37c-3.2,0.02-6.39,0.12-9.59,0.12
		c-46.81-0.05-93.62,0.21-140.44-0.11c-2.25-0.02-4.45-0.35-6.68-0.55c-0.91-0.08-1.67-0.74-1.78-1.52
		c-0.12-0.84-0.12-1.7,0.27-2.47c0.65-1.31,1.3-2.64,2.07-3.88c2.21-3.54,4.47-7.05,6.75-10.54c2.67-4.1,5.38-8.17,8.05-12.27
		c2.67-4.1,5.31-8.23,7.97-12.34c1.06-1.64,2.14-3.25,3.21-4.89c0.18-0.27,0.58-0.53,0.1-0.88c-0.09-0.02-0.18-0.05-0.27-0.07
		c-0.38-0.18-0.79-0.11-1.18-0.11c-12.3,0-24.61,0-36.91,0c-0.39,0-0.8-0.09-1.18,0.12c-0.08,0.02-0.13,0.06-0.16,0.14
		c-0.35,0.32-0.2,0.75-0.2,1.13c0,9.72,0,19.43,0.01,29.15L321.85,194.53z M414.7,189.33C414.7,189.33,414.7,189.33,414.7,189.33
		c13.63,0,27.26,0,40.88,0c0.52,0,1.04,0.03,1.56,0c0.72-0.04,0.82-0.27,0.42-0.9c-1.84-2.84-3.69-5.68-5.53-8.52
		c-3.98-6.11-7.97-12.21-11.94-18.33c-3.58-5.51-7.14-11.03-10.72-16.55c-3.82-5.88-7.64-11.75-11.46-17.63
		c-0.87-1.34-1.75-2.67-2.62-4c-0.29-0.44-0.6-0.5-0.93-0.04c-0.18,0.26-0.37,0.52-0.54,0.79c-1.08,1.67-2.16,3.35-3.25,5.02
		c-3.26,5.01-6.54,10-9.79,15.02c-2.65,4.08-5.26,8.18-7.9,12.25c-3.12,4.81-6.28,9.6-9.41,14.41c-3.81,5.84-7.6,11.69-11.4,17.54
		c-0.45,0.69-0.36,0.89,0.43,0.94c0.16,0.01,0.32,0,0.48,0C386.88,189.33,400.79,189.33,414.7,189.33z M245.82,146.39
		c2.93,1.77,6.16,2.98,9.17,4.58c2.85,1.51,5.74,2.94,8.61,4.41c2.62,1.34,5.24,2.69,7.86,4.04c2.05,1.06,4.06,2.19,6.16,3.15
		c2.61,1.2,5.1,2.61,7.68,3.86c3.72,1.81,7.36,3.77,11.04,5.66c0.69,0.35,1.07,0.15,1.15-0.6c0.03-0.32,0.01-0.64,0.01-0.96
		c0-8.39,0-16.78,0-25.17c0-8.35,0-16.7,0-25.05c0-0.32,0.01-0.64,0-0.96c-0.05-1-0.42-1.2-1.28-0.73
		c-0.84,0.45-1.66,0.93-2.51,1.35c-2.98,1.5-5.98,2.95-8.95,4.46c-3.93,2-7.83,4.04-11.76,6.05c-2.44,1.25-4.91,2.45-7.36,3.71
		c-2.54,1.31-5.06,2.68-7.6,3.99c-3.5,1.8-7.01,3.57-10.51,5.35c-0.74,0.38-1.51,0.71-2.24,1.12c-0.3,0.17-0.77,0.38-0.72,0.79
		C244.56,145.45,244.5,145.76,245.82,146.39z"/>
	<path class="st1" d="M170.3,189.87c-26.39,0-52.77,0-79.16,0c-4.76,0-9.51,0.08-14.27,0.07c-3.82-0.01-7.55-0.74-11.22-1.7
		c-21.72-5.65-38.5-23-43.43-44.85c-5.57-24.7,5.05-50.3,26.51-63.85c7.44-4.7,15.53-7.62,24.26-8.73
		c6.71-0.86,13.4-0.64,20.04,0.63c0.76,0.15,1.39,0.05,2.06-0.29c8.73-4.51,17.46-9.01,26.2-13.51
		c12.96-6.68,25.91-13.37,38.86-20.05c7.6-3.92,15.19-7.84,22.79-11.75c0.85-0.44,1.72-0.85,2.57-1.29c1.35-0.7,2.71-0.56,4.04-0.04
		c0.94,0.37,1.43,1.08,1.41,2.14c-0.02,1.64,0.02,3.28,0.02,4.91c0,15.18,0,30.37,0,45.55c0,20.62,0.01,41.23,0.01,61.85
		c0,2.56-0.02,5.11-0.02,7.67c0,2.25-2.07,3.53-4.07,2.51c-7.68-3.92-15.36-7.85-23.04-11.78c-7.54-3.86-15.07-7.73-22.61-11.58
		c-14.37-7.34-28.75-14.65-43.11-22c-3.58-1.83-7.38-2.77-11.38-2.97c-1.36-0.06-2.71-0.13-4.07-0.19
		c-15.87-0.69-28.39,10.63-30.86,24.48c-2.86,16.04,7.54,31.41,23.49,34.64c2.96,0.6,5.96,0.55,8.96,0.55c40.46,0,80.92,0,121.37,0
		c0.48,0,0.96,0.02,1.44,0c2.21-0.12,4.23,0.42,6.22,1.43c11.33,5.74,22.69,11.4,34.04,17.1c5.78,2.9,11.56,5.82,17.33,8.73
		c0.46,0.23,0.91,0.51,1.36,0.76c0.44,0.25,0.41,0.66,0.34,1.05c-0.07,0.39-0.41,0.45-0.74,0.47c-0.32,0.02-0.64,0.02-0.96,0.02
		C233.23,189.87,201.76,189.87,170.3,189.87z M167.62,58.28c-0.52-0.02-0.84,0.24-1.19,0.42c-14.01,7.24-28.02,14.49-42.02,21.74
		c-3.37,1.74-6.71,3.53-10.05,5.31c-0.41,0.22-1.02,0.38-0.99,0.91c0.03,0.46,0.65,0.52,1.02,0.71c5.29,2.8,10.61,5.55,15.91,8.33
		c11.98,6.29,24.02,12.49,36.03,18.73c1.36,0.7,1.42,0.67,1.42-0.88c0-18.01,0-36.02,0-54.04
		C167.74,59.11,167.83,58.71,167.62,58.28z"/>
	<path class="st2" d="M346.21,62.32c0.67-0.17,1.35-0.07,2.02-0.07c2.43-0.01,4.86,0,7.29,0.01c0.43,0,0.88-0.07,1.3,0.1
		c-0.25,0.18-0.54,0.13-0.81,0.13c-2.96,0-5.91,0-8.87-0.01C346.82,62.47,346.49,62.54,346.21,62.32z"/>
	<path class="st2" d="M321.03,62.35c1.02-0.21,2.06-0.1,3.09-0.1c1.63,0.01,3.26-0.11,4.88,0.07c-0.11,0.05-0.22,0.13-0.33,0.13
		c-2.48,0.01-4.95,0-7.43-0.01C321.18,62.45,321.1,62.38,321.03,62.35z"/>
	<path class="st2" d="M340.95,62.29c0.65-0.26,1.3-0.26,1.95,0C342.25,62.55,341.6,62.55,340.95,62.29z"/>
	<path class="st2" d="M332.79,62.29c0.57-0.25,1.14-0.25,1.71,0C333.93,62.56,333.36,62.56,332.79,62.29z"/>
	<path class="st2" d="M335.91,62.29c0.49-0.26,0.98-0.26,1.47,0C336.89,62.56,336.4,62.56,335.91,62.29z"/>
	<path class="st2" d="M417.22,62.34c0.89-0.18,1.79-0.16,2.68,0.01C419.01,62.55,418.12,62.55,417.22,62.34z"/>
	<path class="st2" d="M339.27,62.29c0.25-0.22,0.5-0.22,0.75,0C339.77,62.52,339.52,62.52,339.27,62.29z"/>
	<path class="st2" d="M331.35,62.29c0.17-0.19,0.34-0.19,0.51,0C331.69,62.5,331.52,62.5,331.35,62.29z"/>
	<g>
		<path class="st1" d="M207.13,67.88c0.6,0.57,0.94,1.23,1,1.96H207c-0.13-0.55-0.39-0.99-0.77-1.32s-0.92-0.49-1.62-0.49
			c-0.85,0-1.53,0.3-2.05,0.89s-0.78,1.51-0.78,2.74c0,1.01,0.24,1.83,0.71,2.45s1.17,0.94,2.11,0.94c0.86,0,1.51-0.33,1.96-0.99
			c0.24-0.35,0.42-0.8,0.53-1.37h1.14c-0.1,0.91-0.44,1.67-1.01,2.28c-0.68,0.74-1.61,1.11-2.77,1.11c-1,0-1.84-0.3-2.52-0.91
			c-0.89-0.8-1.34-2.04-1.34-3.71c0-1.27,0.34-2.31,1.01-3.12c0.73-0.88,1.73-1.32,3.01-1.32
			C205.68,67.02,206.53,67.31,207.13,67.88z"/>
		<path class="st1" d="M212.62,75.03l3.72-4.5h-3.45v-0.94h4.86v0.86l-3.7,4.47h3.81v0.94h-5.25V75.03z"/>
		<path class="st1" d="M226.6,69.76c0.42,0.21,0.74,0.48,0.96,0.81c0.21,0.32,0.35,0.69,0.42,1.11c0.06,0.29,0.09,0.75,0.09,1.38
			h-4.6c0.02,0.64,0.17,1.15,0.45,1.53s0.72,0.58,1.31,0.58c0.55,0,0.99-0.18,1.32-0.54c0.19-0.21,0.32-0.46,0.4-0.73h1.04
			c-0.03,0.23-0.12,0.49-0.27,0.77s-0.33,0.51-0.52,0.69c-0.32,0.31-0.72,0.52-1.19,0.63c-0.25,0.06-0.54,0.09-0.86,0.09
			c-0.78,0-1.44-0.28-1.99-0.85s-0.81-1.36-0.81-2.39c0-1.01,0.27-1.83,0.82-2.46s1.26-0.94,2.14-0.94
			C225.75,69.45,226.18,69.55,226.6,69.76z M226.99,72.22c-0.04-0.46-0.14-0.82-0.3-1.1c-0.29-0.51-0.77-0.76-1.45-0.76
			c-0.48,0-0.89,0.17-1.22,0.52s-0.5,0.79-0.52,1.33H226.99z"/>
		<path class="st1" d="M237.11,69.92c0.44,0.34,0.71,0.94,0.8,1.78h-1.03c-0.06-0.39-0.21-0.71-0.43-0.96s-0.58-0.38-1.07-0.38
			c-0.67,0-1.15,0.33-1.44,0.98c-0.19,0.43-0.28,0.95-0.28,1.58c0,0.63,0.13,1.16,0.4,1.59s0.68,0.64,1.25,0.64
			c0.44,0,0.78-0.13,1.04-0.4s0.43-0.63,0.53-1.1h1.03c-0.12,0.83-0.41,1.44-0.88,1.83s-1.07,0.58-1.8,0.58
			c-0.82,0-1.47-0.3-1.96-0.9s-0.73-1.35-0.73-2.25c0-1.1,0.27-1.96,0.8-2.57s1.22-0.92,2.04-0.92
			C236.09,69.4,236.67,69.58,237.11,69.92z"/>
		<path class="st1" d="M242.57,67.23h1.05v3.21c0.25-0.32,0.47-0.54,0.67-0.67c0.34-0.22,0.76-0.33,1.27-0.33
			c0.91,0,1.53,0.32,1.85,0.96c0.18,0.35,0.26,0.83,0.26,1.45v4.03h-1.08v-3.96c0-0.46-0.06-0.8-0.18-1.01
			c-0.19-0.34-0.55-0.52-1.08-0.52c-0.44,0-0.83,0.15-1.19,0.45s-0.53,0.87-0.53,1.71v3.33h-1.05V67.23z"/>
		<path class="st1" d="M266.08,67.88c0.6,0.57,0.94,1.23,1,1.96h-1.14c-0.13-0.55-0.39-0.99-0.77-1.32
			c-0.39-0.32-0.93-0.49-1.62-0.49c-0.85,0-1.53,0.3-2.05,0.89s-0.78,1.51-0.78,2.74c0,1.01,0.24,1.83,0.71,2.45
			s1.17,0.94,2.11,0.94c0.86,0,1.51-0.33,1.96-0.99c0.24-0.35,0.42-0.8,0.53-1.37h1.14c-0.1,0.91-0.44,1.67-1.01,2.28
			c-0.68,0.74-1.61,1.11-2.77,1.11c-1,0-1.84-0.3-2.52-0.91c-0.89-0.8-1.34-2.04-1.34-3.71c0-1.27,0.34-2.31,1.01-3.12
			c0.73-0.88,1.73-1.32,3.01-1.32C264.63,67.02,265.48,67.31,266.08,67.88z"/>
		<path class="st1" d="M273.09,69.59v4.17c0,0.32,0.05,0.58,0.15,0.79c0.19,0.38,0.54,0.56,1.05,0.56c0.73,0,1.23-0.33,1.5-0.98
			c0.14-0.35,0.22-0.83,0.22-1.45v-3.08h1.05v6.28h-1l0.01-0.93c-0.14,0.24-0.31,0.44-0.51,0.6c-0.4,0.33-0.89,0.49-1.46,0.49
			c-0.89,0-1.5-0.3-1.83-0.9c-0.18-0.32-0.26-0.75-0.26-1.28v-4.27H273.09z"/>
		<path class="st1" d="M282.23,67.23h1.03v3.12c0.23-0.3,0.51-0.53,0.83-0.69s0.67-0.24,1.04-0.24c0.78,0,1.42,0.27,1.9,0.81
			s0.73,1.33,0.73,2.38c0,0.99-0.24,1.82-0.72,2.47s-1.15,0.98-2,0.98c-0.48,0-0.88-0.12-1.21-0.35c-0.2-0.14-0.4-0.36-0.63-0.66
			v0.8h-0.97V67.23z M286.25,74.45c0.28-0.45,0.42-1.05,0.42-1.79c0-0.66-0.14-1.21-0.42-1.64s-0.7-0.65-1.25-0.65
			c-0.48,0-0.9,0.18-1.26,0.53s-0.54,0.94-0.54,1.76c0,0.59,0.07,1.07,0.22,1.44c0.28,0.69,0.79,1.04,1.55,1.04
			C285.54,75.13,285.97,74.9,286.25,74.45z"/>
		<path class="st1" d="M292.59,67.25h1.07v1.2h-1.07V67.25z M292.59,69.62h1.07v6.25h-1.07V69.62z"/>
		<path class="st1" d="M298.85,69.59h1v0.89c0.3-0.37,0.61-0.63,0.94-0.79s0.7-0.24,1.11-0.24c0.89,0,1.49,0.31,1.8,0.93
			c0.17,0.34,0.26,0.83,0.26,1.46v4.03h-1.07v-3.96c0-0.38-0.06-0.69-0.17-0.93c-0.19-0.39-0.53-0.59-1.02-0.59
			c-0.25,0-0.46,0.03-0.62,0.08c-0.29,0.09-0.54,0.26-0.76,0.52c-0.18,0.21-0.29,0.42-0.34,0.64s-0.08,0.54-0.08,0.95v3.29h-1.05
			V69.59z"/>
		<path class="st1" d="M312.63,69.84c0.2,0.14,0.4,0.34,0.61,0.6v-0.79h0.97v5.71c0,0.8-0.12,1.43-0.35,1.89
			c-0.44,0.85-1.26,1.28-2.48,1.28c-0.68,0-1.24-0.15-1.71-0.45s-0.72-0.78-0.77-1.42h1.07c0.05,0.28,0.15,0.5,0.3,0.65
			c0.24,0.23,0.61,0.35,1.12,0.35c0.81,0,1.34-0.29,1.59-0.86c0.15-0.34,0.22-0.94,0.21-1.8c-0.21,0.32-0.46,0.56-0.76,0.71
			s-0.69,0.23-1.18,0.23c-0.68,0-1.27-0.24-1.78-0.72s-0.76-1.28-0.76-2.39c0-1.05,0.26-1.87,0.77-2.46s1.13-0.88,1.86-0.88
			C311.83,69.48,312.26,69.6,312.63,69.84z M312.76,70.97c-0.32-0.38-0.73-0.56-1.22-0.56c-0.74,0-1.25,0.35-1.52,1.04
			c-0.14,0.37-0.22,0.86-0.22,1.46c0,0.71,0.14,1.25,0.43,1.61s0.67,0.55,1.16,0.55c0.76,0,1.29-0.34,1.6-1.03
			c0.17-0.39,0.26-0.84,0.26-1.35C313.24,71.92,313.08,71.34,312.76,70.97z"/>
		<path class="st1" d="M328.32,67.25h1.32l3.12,8.61h-1.28l-0.87-2.58h-3.4l-0.93,2.58h-1.2L328.32,67.25z M330.24,72.33l-1.31-3.8
			l-1.39,3.8H330.24z"/>
		<path class="st1" d="M337.91,73.89c0.03,0.35,0.12,0.62,0.26,0.81c0.27,0.34,0.73,0.51,1.38,0.51c0.39,0,0.73-0.08,1.03-0.25
			s0.45-0.43,0.45-0.79c0-0.27-0.12-0.47-0.36-0.62c-0.15-0.09-0.45-0.19-0.9-0.3l-0.84-0.21c-0.54-0.13-0.93-0.28-1.18-0.45
			c-0.45-0.29-0.68-0.68-0.68-1.18c0-0.59,0.21-1.07,0.64-1.44s1-0.55,1.73-0.55c0.95,0,1.63,0.28,2.04,0.83
			c0.26,0.35,0.39,0.73,0.38,1.14h-1c-0.02-0.24-0.1-0.46-0.25-0.65c-0.24-0.28-0.66-0.42-1.26-0.42c-0.4,0-0.7,0.08-0.91,0.23
			s-0.31,0.35-0.31,0.6c0,0.27,0.13,0.49,0.4,0.66c0.16,0.1,0.39,0.18,0.69,0.26l0.7,0.17c0.76,0.18,1.27,0.36,1.52,0.53
			c0.41,0.27,0.62,0.69,0.62,1.27c0,0.56-0.21,1.04-0.64,1.45s-1.07,0.61-1.94,0.61c-0.93,0-1.59-0.21-1.98-0.64
			s-0.6-0.95-0.62-1.57H337.91z"/>
		<path class="st1" d="M347.51,73.89c0.03,0.35,0.12,0.62,0.26,0.81c0.27,0.34,0.73,0.51,1.38,0.51c0.39,0,0.73-0.08,1.03-0.25
			s0.45-0.43,0.45-0.79c0-0.27-0.12-0.47-0.36-0.62c-0.15-0.09-0.45-0.19-0.9-0.3l-0.84-0.21c-0.54-0.13-0.93-0.28-1.18-0.45
			c-0.45-0.29-0.68-0.68-0.68-1.18c0-0.59,0.21-1.07,0.64-1.44s1-0.55,1.73-0.55c0.95,0,1.63,0.28,2.04,0.83
			c0.26,0.35,0.39,0.73,0.38,1.14h-1c-0.02-0.24-0.1-0.46-0.25-0.65c-0.24-0.28-0.66-0.42-1.26-0.42c-0.4,0-0.7,0.08-0.91,0.23
			s-0.31,0.35-0.31,0.6c0,0.27,0.13,0.49,0.4,0.66c0.16,0.1,0.39,0.18,0.69,0.26l0.7,0.17c0.76,0.18,1.27,0.36,1.52,0.53
			c0.41,0.27,0.62,0.69,0.62,1.27c0,0.56-0.21,1.04-0.64,1.45s-1.07,0.61-1.94,0.61c-0.93,0-1.59-0.21-1.98-0.64
			s-0.6-0.95-0.62-1.57H347.51z"/>
		<path class="st1" d="M361.07,70.21c0.56,0.54,0.84,1.33,0.84,2.38c0,1.01-0.25,1.85-0.74,2.51s-1.26,0.99-2.29,0.99
			c-0.86,0-1.55-0.29-2.06-0.88s-0.76-1.37-0.76-2.35c0-1.05,0.27-1.89,0.8-2.52s1.25-0.94,2.16-0.94
			C359.82,69.4,360.51,69.67,361.07,70.21z M360.41,74.39c0.26-0.53,0.39-1.12,0.39-1.77c0-0.59-0.09-1.06-0.28-1.43
			c-0.3-0.58-0.81-0.87-1.54-0.87c-0.64,0-1.11,0.25-1.41,0.74s-0.44,1.09-0.44,1.78c0,0.67,0.15,1.22,0.44,1.67
			s0.76,0.67,1.39,0.67C359.67,75.18,360.15,74.92,360.41,74.39z"/>
		<path class="st1" d="M370.9,69.92c0.44,0.34,0.71,0.94,0.8,1.78h-1.03c-0.06-0.39-0.21-0.71-0.43-0.96s-0.58-0.38-1.07-0.38
			c-0.67,0-1.15,0.33-1.44,0.98c-0.19,0.43-0.28,0.95-0.28,1.58c0,0.63,0.13,1.16,0.4,1.59s0.68,0.64,1.25,0.64
			c0.44,0,0.78-0.13,1.04-0.4s0.43-0.63,0.53-1.1h1.03c-0.12,0.83-0.41,1.44-0.88,1.83s-1.07,0.58-1.8,0.58
			c-0.82,0-1.47-0.3-1.96-0.9s-0.73-1.35-0.73-2.25c0-1.1,0.27-1.96,0.8-2.57s1.22-0.92,2.04-0.92
			C369.88,69.4,370.46,69.58,370.9,69.92z"/>
		<path class="st1" d="M376.36,67.25h1.07v1.2h-1.07V67.25z M376.36,69.62h1.07v6.25h-1.07V69.62z"/>
		<path class="st1" d="M385.99,72.06c0.24-0.03,0.4-0.13,0.49-0.3c0.05-0.09,0.07-0.23,0.07-0.4c0-0.36-0.13-0.62-0.38-0.78
			s-0.62-0.24-1.1-0.24c-0.55,0-0.94,0.15-1.17,0.45c-0.13,0.16-0.21,0.41-0.25,0.73h-0.98c0.02-0.77,0.27-1.31,0.75-1.61
			s1.04-0.45,1.68-0.45c0.74,0,1.34,0.14,1.8,0.42c0.46,0.28,0.69,0.72,0.69,1.31v3.62c0,0.11,0.02,0.2,0.07,0.26s0.14,0.1,0.28,0.1
			c0.05,0,0.1,0,0.16-0.01s0.12-0.01,0.19-0.03v0.78c-0.16,0.05-0.29,0.08-0.38,0.09s-0.2,0.02-0.35,0.02
			c-0.36,0-0.63-0.13-0.79-0.39c-0.09-0.14-0.15-0.33-0.18-0.58c-0.21,0.28-0.52,0.53-0.93,0.73s-0.85,0.31-1.33,0.31
			c-0.58,0-1.06-0.18-1.43-0.53s-0.55-0.8-0.55-1.33c0-0.58,0.18-1.03,0.54-1.35s0.84-0.52,1.43-0.59L385.99,72.06z M383.77,74.91
			c0.22,0.18,0.49,0.26,0.79,0.26c0.37,0,0.73-0.09,1.08-0.26c0.59-0.29,0.88-0.75,0.88-1.4v-0.85c-0.13,0.08-0.29,0.15-0.5,0.21
			s-0.4,0.09-0.6,0.12l-0.64,0.08c-0.38,0.05-0.67,0.13-0.86,0.24c-0.32,0.18-0.49,0.48-0.49,0.88
			C383.43,74.5,383.54,74.74,383.77,74.91z"/>
		<path class="st1" d="M393.11,67.83h1.07v1.75h1v0.86h-1v4.1c0,0.22,0.07,0.37,0.22,0.44c0.08,0.04,0.22,0.06,0.41,0.06
			c0.05,0,0.11,0,0.16,0s0.13-0.01,0.21-0.01v0.83c-0.12,0.04-0.25,0.06-0.38,0.08s-0.27,0.02-0.42,0.02c-0.49,0-0.83-0.13-1-0.38
			s-0.26-0.58-0.26-0.98v-4.15h-0.85v-0.86h0.85V67.83z"/>
		<path class="st1" d="M399.83,67.25h1.07v1.2h-1.07V67.25z M399.83,69.62h1.07v6.25h-1.07V69.62z"/>
		<path class="st1" d="M410.68,70.21c0.56,0.54,0.84,1.33,0.84,2.38c0,1.01-0.25,1.85-0.74,2.51s-1.26,0.99-2.29,0.99
			c-0.86,0-1.55-0.29-2.06-0.88s-0.76-1.37-0.76-2.35c0-1.05,0.27-1.89,0.8-2.52s1.25-0.94,2.16-0.94
			C409.44,69.4,410.12,69.67,410.68,70.21z M410.02,74.39c0.26-0.53,0.39-1.12,0.39-1.77c0-0.59-0.09-1.06-0.28-1.43
			c-0.3-0.58-0.81-0.87-1.54-0.87c-0.64,0-1.11,0.25-1.41,0.74s-0.44,1.09-0.44,1.78c0,0.67,0.15,1.22,0.44,1.67
			s0.76,0.67,1.39,0.67C409.29,75.18,409.77,74.92,410.02,74.39z"/>
		<path class="st1" d="M416.37,69.59h1v0.89c0.3-0.37,0.61-0.63,0.94-0.79s0.7-0.24,1.11-0.24c0.89,0,1.49,0.31,1.8,0.93
			c0.17,0.34,0.26,0.83,0.26,1.46v4.03h-1.07v-3.96c0-0.38-0.06-0.69-0.17-0.93c-0.19-0.39-0.53-0.59-1.02-0.59
			c-0.25,0-0.46,0.03-0.62,0.08c-0.29,0.09-0.54,0.26-0.76,0.52c-0.18,0.21-0.29,0.42-0.34,0.64s-0.08,0.54-0.08,0.95v3.29h-1.05
			V69.59z"/>
	</g>
</g>
</svg>
